<svg width="40" height="40" viewBox="0 0 40 40" fill="none" xmlns="http://www.w3.org/2000/svg">
<path d="M25.5859 18.1904C26.163 18.1904 26.6522 18.3739 26.9629 18.6953C27.2735 19.0167 27.4964 19.4758 27.585 20.165H23.5889C23.5889 19.9819 23.6325 19.7973 23.6768 19.5684C23.721 19.3394 23.8097 19.1097 23.9873 18.9258C24.1644 18.7418 24.343 18.5581 24.6094 18.4199C24.8757 18.2819 25.1862 18.1905 25.5859 18.1904Z" fill="black"/>
<path d="M15.6406 20.0283C16.2174 20.0284 16.7057 20.1661 17.0605 20.4414C17.4155 20.7628 17.5937 21.2225 17.5938 21.8652C17.5938 22.1866 17.5046 22.4626 17.416 22.6924C17.2825 22.922 17.1494 23.0592 16.9717 23.1973C16.7946 23.3347 16.5727 23.4278 16.3506 23.4736C16.1286 23.5194 15.862 23.5644 15.5957 23.5645H12.708V20.0283H15.6406Z" fill="black"/>
<path d="M15.2842 15.1592C15.5503 15.1592 15.7722 15.1594 15.9941 15.2051C16.2161 15.2509 16.3936 15.343 16.5713 15.4346C16.7491 15.5727 16.8824 15.7106 16.9717 15.8945C17.0608 16.0784 17.1054 16.3536 17.1055 16.6289C17.1055 17.1342 16.9725 17.5483 16.6611 17.7773C16.3497 18.0064 15.9504 18.1445 15.4619 18.1445H12.708V15.1592H15.2842Z" fill="black"/>
<path fill-rule="evenodd" clip-rule="evenodd" d="M20 0C31.0457 0 40 8.9543 40 20C40 31.0457 31.0457 40 20 40C8.9543 40 0 31.0457 0 20C0 8.9543 8.9543 0 20 0ZM24.165 23.5186C23.8105 23.1504 23.5439 22.4621 23.5439 21.7275H29.9824C30.0274 20.9933 29.9821 20.3497 29.8936 19.707C29.7157 19.0643 29.4497 18.4672 29.0947 17.9619C28.7398 17.4108 28.2956 17.0431 27.7178 16.7217C27.14 16.4004 26.4746 16.2617 25.7197 16.2617C25.0091 16.2617 24.4316 16.3991 23.8545 16.6289C23.3219 16.8586 22.8344 17.2261 22.4346 17.6396C22.0346 18.0992 21.7231 18.6052 21.501 19.2021C21.279 19.799 21.1904 20.4417 21.1904 21.1309C21.1904 21.865 21.279 22.5086 21.501 23.1055C21.6781 23.7032 21.9897 24.2083 22.3896 24.6221C22.7888 25.0815 23.2327 25.4038 23.8096 25.6328C24.3866 25.8618 25.0082 26 25.7188 26C26.7401 26 27.5843 25.7242 28.2949 25.2646C29.0054 24.7593 29.5377 23.9782 29.8926 22.876H27.7178C27.6285 23.1516 27.4058 23.4275 27.0508 23.7031C26.6959 23.932 26.2519 24.0702 25.7637 24.0703C25.053 24.0703 24.52 23.8858 24.165 23.5186ZM10 13V25.6768H15.9492C16.482 25.6768 17.0151 25.5854 17.5479 25.4473C18.0807 25.3098 18.5688 25.0803 18.9688 24.8047C19.3687 24.5291 19.7249 24.1158 19.9463 23.6562C20.1676 23.1968 20.3008 22.6456 20.3008 22.0029C20.3008 21.2228 20.0785 20.5336 19.7236 19.9824C19.3687 19.4313 18.7919 19.0179 18.0371 18.7881C18.5698 18.5125 19.0139 18.1451 19.2803 17.7314C19.5909 17.3177 19.7246 16.7667 19.7246 16.124C19.7246 15.5729 19.6358 15.068 19.458 14.6543C19.2802 14.2407 19.0147 13.9192 18.6592 13.6895C18.3035 13.4597 17.9036 13.2752 17.415 13.1836C16.9266 13.0455 16.3934 13 15.8164 13H10ZM23.0547 13.873V15.1133H28.0283V13.873H23.0547Z" fill="black"/>
</svg>
