<svg width="46" height="46" viewBox="0 0 46 46" fill="none" xmlns="http://www.w3.org/2000/svg">
<path d="M22.9944 19.6671C24.835 19.6636 26.3304 21.1519 26.3343 22.993C26.3378 24.8335 24.8495 26.329 23.0084 26.3329C21.1678 26.3364 19.671 24.8488 19.6671 23.0084L19.6839 22.6652C19.8515 20.9845 21.2684 19.6707 22.9944 19.6671Z" fill="black"/>
<path fill-rule="evenodd" clip-rule="evenodd" d="M22.9847 14.8052C25.6536 14.7995 25.9713 14.809 27.0262 14.8555C28 14.8976 28.5296 15.0595 28.8817 15.1959C29.3488 15.3759 29.6826 15.5916 30.034 15.9408C30.3854 16.2901 30.6018 16.6226 30.7846 17.0904C30.9224 17.4417 31.0862 17.9702 31.132 18.9445C31.182 19.9987 31.1925 20.3158 31.1975 22.9847C31.2025 25.6538 31.1938 25.9713 31.1473 27.0248C31.1045 27.9998 30.9426 28.5295 30.8069 28.8831C30.627 29.3499 30.4097 29.6828 30.0605 30.034C29.7113 30.3854 29.3788 30.6025 28.9124 30.7846C28.5602 30.9217 28.0305 31.0855 27.0569 31.132C26.0028 31.1812 25.6862 31.1918 23.0167 31.1975C20.3467 31.2033 20.0295 31.193 18.9752 31.1473C18.0004 31.1052 17.4711 30.9426 17.1183 30.8069C16.6512 30.6269 16.3188 30.4084 15.9674 30.0605C15.616 29.7127 15.3989 29.3788 15.2168 28.9124C15.0797 28.5596 14.9152 28.0312 14.8694 27.0569C14.8201 26.0034 14.8096 25.6863 14.8039 23.0167C14.7981 20.3469 14.8076 20.0308 14.8541 18.9766C14.8955 18.0024 15.0588 17.4725 15.1945 17.1197C15.3744 16.6521 15.5912 16.32 15.9395 15.9688C16.288 15.6173 16.6226 15.4003 17.089 15.2182C17.4412 15.0804 17.9707 14.9172 18.9445 14.8708C19.9985 14.8208 20.3156 14.811 22.9847 14.8052ZM22.9902 17.8647C20.1547 17.8706 17.8605 20.1744 17.8661 23.0098C17.8718 25.8453 20.1741 28.1396 23.0098 28.1339C25.8454 28.1282 28.1402 25.8257 28.1353 22.9902C28.1296 20.1546 25.826 17.859 22.9902 17.8647ZM28.3251 16.4542C27.6626 16.456 27.1276 16.993 27.1281 17.6554C27.1295 18.3182 27.6678 18.8552 28.3306 18.8538C28.9932 18.852 29.5291 18.3138 29.5276 17.6512C29.526 16.9886 28.9878 16.4528 28.3251 16.4542Z" fill="black"/>
<path fill-rule="evenodd" clip-rule="evenodd" d="M23 3C34.0457 3 43 11.9543 43 23C43 34.0457 34.0457 43 23 43C11.9543 43 3 34.0457 3 23C3 11.9543 11.9543 3 23 3ZM22.9805 13.0014C20.2648 13.0064 19.9244 13.0183 18.858 13.0698L18.4743 13.0949C17.6141 13.1643 16.9887 13.322 16.4333 13.5399C15.7762 13.7963 15.218 14.14 14.6629 14.6964C14.1088 15.2527 13.7677 15.8106 13.5134 16.4682C13.267 17.1046 13.1002 17.8322 13.053 18.897C13.0059 19.9613 12.9964 20.3046 13.0014 23.0195C13.0064 25.7342 13.0183 26.075 13.0698 27.142C13.1205 28.2055 13.2892 28.9324 13.5385 29.5681C13.7949 30.225 14.1387 30.7822 14.695 31.3371C15.2515 31.8913 15.8096 32.2316 16.4696 32.4866C17.1052 32.7322 17.833 32.9006 18.897 32.947C19.9613 32.9934 20.3046 33.0036 23.0195 32.9986C25.7343 32.9936 26.0763 32.9824 27.1434 32.9316C28.2103 32.8809 28.9325 32.71 29.5681 32.4615C30.225 32.2044 30.7829 31.8619 31.3371 31.305C31.8912 30.748 32.2331 30.1901 32.4866 29.5318C32.733 28.8962 32.9005 28.1678 32.947 27.1044C32.9934 26.0372 33.0043 25.6961 32.9986 22.9805C32.9929 20.2656 32.9809 19.9252 32.9302 18.8594C32.8795 17.793 32.7108 17.0676 32.4615 16.4319C32.2044 15.775 31.8613 15.2178 31.305 14.6629C30.7486 14.1081 30.1903 13.7669 29.5318 13.5134C28.8954 13.267 28.1673 13.1001 27.103 13.0544C26.0391 13.0087 25.6957 12.9964 22.9805 13.0014Z" fill="black"/>
</svg>
