<svg width="46" height="46" viewBox="0 0 46 46" fill="none" xmlns="http://www.w3.org/2000/svg">
<path fill-rule="evenodd" clip-rule="evenodd" d="M23 3C34.0457 3 43 11.9543 43 23C43 34.0457 34.0457 43 23 43C11.9543 43 3 34.0457 3 23C3 11.9543 11.9543 3 23 3ZM24.8052 25.3228C24.2892 25.7713 23.6431 25.9994 23 25.9994C22.3602 25.9994 21.7137 25.7713 21.1975 25.3228L20.5809 24.7871L13.9752 30.5432C14.1991 30.6728 14.4621 30.7469 14.7425 30.7469H31.2575C31.5379 30.7469 31.8006 30.6728 32.0248 30.5432L25.4219 24.7871L24.8052 25.3228ZM13.1939 29.1984C13.1939 29.222 13.1935 29.246 13.1967 29.2667L19.4579 23.8078L13.1939 18.3432V29.1984ZM26.5421 23.8105L32.8033 29.2667C32.8063 29.246 32.8061 29.222 32.8061 29.1984V18.346L26.5421 23.8105ZM14.7425 16.0511C14.3118 16.0511 13.9306 16.2215 13.6473 16.5045C13.5973 16.5548 13.5503 16.6078 13.512 16.6635L22.1657 24.2123C22.4076 24.4213 22.7023 24.5248 23 24.5248C23.3008 24.5248 23.5956 24.4212 23.8343 24.2123L32.4908 16.6677C32.4491 16.6119 32.4028 16.5549 32.3527 16.5045C32.0728 16.2215 31.6882 16.0511 31.2575 16.0511H14.7425Z" fill="black"/>
</svg>
