<svg width="46" height="46" viewBox="0 0 46 46" fill="none" xmlns="http://www.w3.org/2000/svg">
<path fill-rule="evenodd" clip-rule="evenodd" d="M23 3C11.9543 3 3 11.9543 3 23C3 34.0457 11.9543 43 23 43C34.0457 43 43 34.0457 43 23C43 11.9543 34.0457 3 23 3ZM32.27 16.6014C31.9686 19.7643 30.6671 27.4386 30.0043 30.98C29.7243 32.4786 29.1714 32.9814 28.6371 33.03C27.4757 33.1371 26.5943 32.2629 25.4686 31.5257C23.7086 30.3714 22.7143 29.6529 21.0057 28.5271C19.0314 27.2257 20.3114 26.51 21.4371 25.3414C21.7314 25.0357 26.8486 20.3814 26.9486 19.9586C26.9614 19.9057 26.9729 19.7086 26.8557 19.6043C26.7386 19.5 26.5657 19.5357 26.4414 19.5643C26.2643 19.6043 23.4529 21.4629 18.0057 25.14C17.2071 25.6886 16.4843 25.9557 15.8371 25.9414C15.1229 25.9257 13.75 25.5371 12.7286 25.2057C11.4757 24.7986 10.48 24.5829 10.5671 23.8914C10.6129 23.5314 11.1086 23.1629 12.0557 22.7871C17.8857 20.2471 21.7743 18.5729 23.7186 17.7629C29.2729 15.4529 30.4271 15.0514 31.1786 15.0386C31.3443 15.0357 31.7143 15.0771 31.9543 15.2714C32.1571 15.4357 32.2129 15.6571 32.2386 15.8129C32.2657 15.9686 32.2986 16.3229 32.2714 16.6L32.27 16.6014Z" fill="black"/>
</svg>
