<svg width="46" height="46" viewBox="0 0 46 46" fill="none" xmlns="http://www.w3.org/2000/svg">
<path d="M23.964 23.2567C24.6109 23.2567 25.2178 23.3201 25.7679 23.4408C25.5629 26.0136 24.3582 26.4319 23.2972 26.4905C22.2141 26.5519 21.0885 26.0636 21.0329 25.0187C20.9916 24.2437 21.5822 23.3784 23.3641 23.2748C23.5681 23.2627 23.7678 23.2567 23.964 23.2567Z" fill="black"/>
<path fill-rule="evenodd" clip-rule="evenodd" d="M23 3C34.0457 3 43 11.9543 43 23C43 34.0457 34.0457 43 23 43C11.9543 43 3 34.0457 3 23C3 11.9543 11.9543 3 23 3ZM23.1423 13C20.2288 13.02 17.9873 14.0048 16.4821 15.9255C15.143 17.6348 14.4521 20.0126 14.4286 22.993V23.007C14.4521 25.9874 15.143 28.366 16.4821 30.0745C17.9873 31.9952 20.2288 32.98 23.1423 33H23.1535C25.7438 32.9821 27.5698 32.3015 29.0742 30.793C31.0419 28.8195 30.9822 26.3462 30.334 24.8276C29.8686 23.7383 28.9811 22.8533 27.7684 22.269L27.7698 22.2704C27.6837 22.229 27.5971 22.1889 27.5089 22.1504C27.3551 19.3065 25.8065 17.6776 23.2065 17.661H23.1702C21.6154 17.6611 20.3211 18.3281 19.5248 19.5402L20.9548 20.5237C21.5497 19.6183 22.4828 19.4258 23.1702 19.4258H23.1939C24.0497 19.4315 24.6958 19.6805 25.1136 20.168C25.4181 20.523 25.6215 21.0142 25.7218 21.6328C24.9626 21.5036 24.1424 21.4635 23.2651 21.5142C20.7928 21.6571 19.2032 23.1043 19.31 25.115C19.3643 26.1347 19.8713 27.0122 20.7358 27.5857C21.4672 28.0698 22.4088 28.306 23.3878 28.2525C24.6807 28.1811 25.6953 27.6868 26.4026 26.7821C26.9399 26.0943 27.2806 25.2031 27.4308 24.0812C28.0468 24.4547 28.5036 24.9457 28.7561 25.5363C29.185 26.5399 29.2093 28.1892 27.8689 29.5332C26.694 30.7109 25.2819 31.2209 23.1479 31.2366C20.7809 31.2188 18.9899 30.4567 17.8256 28.971C16.7357 27.5804 16.1729 25.5722 16.1515 23.0014C16.1729 20.4309 16.7356 18.4211 17.8256 17.0304C18.9899 15.5454 20.7802 14.7826 23.1479 14.7648C25.5317 14.7827 27.3539 15.5482 28.5622 17.0402C29.155 17.7723 29.602 18.6933 29.8959 19.7662L31.5714 19.317C31.2142 17.9965 30.6531 16.8578 29.889 15.9143C28.3397 14.0008 26.0733 13.0207 23.1535 13H23.1423Z" fill="black"/>
</svg>
