<svg width="40" height="40" viewBox="0 0 40 40" fill="none" xmlns="http://www.w3.org/2000/svg">
<path fill-rule="evenodd" clip-rule="evenodd" d="M32.3412 7.58625C29.0675 4.3075 24.7125 2.5025 20.0737 2.5C10.5137 2.5 2.73249 10.28 2.72999 19.8425C2.72874 22.9 3.52749 25.8837 5.04499 28.5125L2.58374 37.5L11.7775 35.0887C14.31 36.4712 17.1625 37.1988 20.065 37.2H20.0725C29.6312 37.2 37.4125 29.42 37.415 19.8575C37.4162 15.2225 35.615 10.8662 32.34 7.58875L32.3412 7.58625ZM27.98 23.475C27.5462 23.2575 25.4162 22.21 25.0187 22.065C24.6212 21.92 24.3325 21.8475 24.0437 22.2825C23.755 22.7163 22.925 23.6925 22.6712 23.9812C22.4187 24.2712 22.165 24.3062 21.7325 24.0887C21.2987 23.8712 19.9025 23.4138 18.2475 21.9388C16.96 20.79 16.09 19.3713 15.8362 18.9363C15.5837 18.5025 15.81 18.2675 16.0262 18.0525C16.2212 17.8575 16.46 17.5462 16.6762 17.2937C16.8937 17.0412 16.965 16.86 17.11 16.5712C17.255 16.2812 17.1825 16.0287 17.0737 15.8125C16.965 15.595 16.0987 13.4625 15.7375 12.595C15.3862 11.75 15.0287 11.865 14.7625 11.8512C14.51 11.8387 14.2212 11.8363 13.9312 11.8363C13.6412 11.8363 13.1725 11.9437 12.775 12.3787C12.3775 12.8125 11.2587 13.8612 11.2587 15.9937C11.2587 18.1262 12.8112 20.1875 13.0287 20.4775C13.2462 20.7675 16.085 25.1438 20.4312 27.0213C21.465 27.4675 22.2725 27.735 22.9025 27.9338C23.94 28.2638 24.885 28.2175 25.6312 28.1063C26.4637 27.9813 28.195 27.0575 28.5562 26.045C28.9175 25.0325 28.9175 24.165 28.8087 23.9837C28.7 23.8025 28.4112 23.6937 27.9775 23.4775L27.98 23.475Z" fill="black"/>
</svg>
